<svg width="15" height="19" viewBox="0 0 15 19" fill="none" xmlns="http://www.w3.org/2000/svg">
<path d="M13.7781 3.19327L13.7788 3.1935C13.9542 3.25492 14.0715 3.42012 14.0715 3.60648V10.0585C14.0715 11.716 13.4691 13.298 12.4055 14.5235L12.4053 14.5238C11.8853 15.1238 11.2144 15.6054 10.473 16.0064C10.4729 16.0065 10.4729 16.0065 10.4728 16.0066L8.50865 17.0676C7.79718 17.4519 6.94 17.4521 6.22834 17.0681L4.25886 16.0055C4.25881 16.0054 4.25875 16.0054 4.25869 16.0054C4.25867 16.0054 4.25865 16.0053 4.25863 16.0053C3.51589 15.6041 2.84437 15.1234 2.32373 14.5228L2.32334 14.5224C1.25881 13.2968 0.654688 11.7138 0.654688 10.0547V3.60648C0.654688 3.42012 0.771971 3.25492 0.947407 3.1935L0.948061 3.19327L7.21763 0.990059C7.21768 0.99004 7.21774 0.990021 7.2178 0.990001C7.31248 0.956863 7.41509 0.957164 7.5078 0.989793L7.50806 0.989885L13.7781 3.19327Z" fill="white" stroke="#FF6B00" stroke-width="1.2" stroke-linecap="round" stroke-linejoin="round"/>
<path d="M4.88672 9.09992L6.68905 10.9032L10.4023 7.18994" stroke="#FF6B00" stroke-width="1.2" stroke-linecap="round" stroke-linejoin="round"/>
</svg>
