<svg width="18" height="17" viewBox="0 0 18 17" fill="none" xmlns="http://www.w3.org/2000/svg">
<mask id="path-1-inside-1_801_63962" fill="white">
<path fill-rule="evenodd" clip-rule="evenodd" d="M8.81656 16.4635C13.5418 16.4635 17.3723 12.9668 17.3723 8.65336C17.3723 4.33996 13.5418 0.843262 8.81656 0.843262C4.09138 0.843262 0.260852 4.33996 0.260852 8.65336C0.260852 9.8712 0.566201 11.0239 1.11082 12.0512L0.176376 15.1759C0.0817251 15.4924 0.372229 15.7898 0.690343 15.7021L3.65696 14.884C5.09135 15.8754 6.87872 16.4635 8.81656 16.4635Z"/>
</mask>
<path d="M1.11082 12.0512L2.26051 12.3951C2.35083 12.0931 2.31869 11.7677 2.17105 11.4892L1.11082 12.0512ZM0.176376 15.1759L1.32607 15.5197H1.32607L0.176376 15.1759ZM0.690343 15.7021L0.371339 14.5452L0.371337 14.5452L0.690343 15.7021ZM3.65696 14.884L4.33923 13.8968C4.04703 13.6949 3.68038 13.6327 3.33796 13.7272L3.65696 14.884ZM16.1723 8.65336C16.1723 12.2034 12.9843 15.2635 8.81656 15.2635V17.6635C14.0992 17.6635 18.5723 13.7301 18.5723 8.65336H16.1723ZM8.81656 2.04326C12.9843 2.04326 16.1723 5.10334 16.1723 8.65336H18.5723C18.5723 3.57658 14.0992 -0.356738 8.81656 -0.356738V2.04326ZM1.46085 8.65336C1.46085 5.10334 4.64879 2.04326 8.81656 2.04326V-0.356738C3.53396 -0.356738 -0.939148 3.57658 -0.939148 8.65336H1.46085ZM2.17105 11.4892C1.71439 10.6278 1.46085 9.66725 1.46085 8.65336H-0.939148C-0.939148 10.0751 -0.581993 11.4201 0.0505976 12.6133L2.17105 11.4892ZM-0.0388668 11.7074L-0.973314 14.8321L1.32607 15.5197L2.26051 12.3951L-0.0388668 11.7074ZM-0.973313 14.8321C-1.33725 16.049 -0.221062 17.1982 1.00935 16.8589L0.371337 14.5452C0.965519 14.3814 1.5007 14.9358 1.32607 15.5197L-0.973313 14.8321ZM1.00935 16.8589L3.97597 16.0408L3.33796 13.7272L0.371339 14.5452L1.00935 16.8589ZM8.81656 15.2635C7.1226 15.2635 5.57319 14.7497 4.33923 13.8968L2.97469 15.8712C4.60952 17.0011 6.63485 17.6635 8.81656 17.6635V15.2635Z" fill="#FF6B00" mask="url(#path-1-inside-1_801_63962)"/>
<path d="M5.92383 7.43762H11.6316" stroke="#FF6B00" stroke-width="1.2" stroke-linecap="round"/>
<path d="M5.92383 9.86951H11.6316" stroke="#FF6B00" stroke-width="1.2" stroke-linecap="round"/>
</svg>
