<svg width="19" height="19" viewBox="0 0 19 19" fill="none" xmlns="http://www.w3.org/2000/svg">
<path d="M8.72843 6.02896C8.72843 6.91065 8.01368 7.6254 7.13199 7.6254C6.2503 7.6254 5.53555 6.91065 5.53555 6.02896C5.53555 5.14727 6.2503 4.43252 7.13199 4.43252C8.01368 4.43252 8.72843 5.14727 8.72843 6.02896Z" stroke="#00B01C" stroke-width="1.2" stroke-linecap="round"/>
<path fill-rule="evenodd" clip-rule="evenodd" d="M9.20179 7.93141C8.59349 7.59452 7.87978 7.40381 7.1349 7.40381C5.06748 7.40381 3.24023 8.87291 3.24023 10.8589C3.24023 11.1903 3.50886 11.4589 3.84023 11.4589C4.17161 11.4589 4.44023 11.1903 4.44023 10.8589C4.44023 9.69123 5.56313 8.60381 7.1349 8.60381C7.77322 8.60381 8.33752 8.78316 8.78263 9.07441C8.81237 8.64847 8.96356 8.256 9.20179 7.93141ZM9.90393 11.1484C10.0061 11.3335 10.2032 11.4589 10.4296 11.4589C10.5174 11.4589 10.6008 11.44 10.676 11.4061C10.3989 11.3686 10.1382 11.2793 9.90393 11.1484Z" fill="#00B01C"/>
<path d="M12.5702 9.22769C12.5702 10.1094 11.8555 10.8241 10.9738 10.8241C10.0921 10.8241 9.37734 10.1094 9.37734 9.22769C9.37734 8.346 10.0921 7.63125 10.9738 7.63125C11.8555 7.63125 12.5702 8.346 12.5702 9.22769Z" stroke="#00B01C" stroke-width="1.2" stroke-linecap="round"/>
<path d="M14.269 14.0558C14.269 12.4789 12.7939 11.2007 10.9743 11.2007C9.15476 11.2007 7.67969 12.4789 7.67969 14.0558" stroke="#00B01C" stroke-width="1.2" stroke-linecap="round"/>
<rect x="0.654688" y="0.965234" width="16.8" height="16.8" rx="3.4" stroke="#00B01C" stroke-width="1.2"/>
</svg>
