<svg width="19" height="19" viewBox="0 0 19 19" fill="none" xmlns="http://www.w3.org/2000/svg">
<rect x="5.79727" y="6.1083" width="11.6571" height="11.6571" rx="1.4" stroke="#00B01C" stroke-width="1.2"/>
<path fill-rule="evenodd" clip-rule="evenodd" d="M2.05469 1.56523H10.9118C11.3537 1.56523 11.7118 1.92341 11.7118 2.36523V3.62238C11.7118 3.95375 11.9805 4.22238 12.3118 4.22238C12.6432 4.22238 12.9118 3.95375 12.9118 3.62238V2.36523C12.9118 1.26066 12.0164 0.365234 10.9118 0.365234H2.05469C0.950118 0.365234 0.0546875 1.26066 0.0546875 2.36523V11.2224C0.0546875 12.3269 0.950117 13.2224 2.05469 13.2224H3.31183C3.6432 13.2224 3.91183 12.9537 3.91183 12.6224C3.91183 12.291 3.6432 12.0224 3.31183 12.0224H2.05469C1.61286 12.0224 1.25469 11.6642 1.25469 11.2224V2.36523C1.25469 1.92341 1.61286 1.56523 2.05469 1.56523Z" fill="#00B01C"/>
</svg>
